<?xml version="1.0" encoding="UTF-8"?> <svg xmlns="http://www.w3.org/2000/svg" width="80" height="22" viewBox="0 0 80 22" fill="none"> <path fill-rule="evenodd" clip-rule="evenodd" d="M14.1872 5.3233H11.8969C7.30504 5.3233 3.38359 16.6833 8.80219 16.6724H12.288C14.299 16.6724 15.7848 17.3875 15.1256 19.3231L14.2209 21.9844H10.5226L7.51727 21.9512C3.67385 21.9185 1.19359 20.0598 0.299981 17.2447C-0.672062 14.1985 0.702163 7.85231 4.6571 3.78328C6.95848 1.41904 10.1427 0 14.2209 0H21.7622L20.578 3.33269C19.8665 5.35091 18.4497 5.33487 17.5479 5.32466C17.4866 5.32397 17.4277 5.3233 17.3716 5.3233H14.1872ZM55.8504 8.34545H43.7058C41.6949 8.34545 40.7899 8.89477 40.4208 10.0277L39.2813 13.6568H51.4258C53.4368 13.6568 54.3417 13.1071 54.7108 11.9742L55.8504 8.34545ZM40.745 16.6887H52.8896L51.7494 20.3185C51.3809 21.451 50.476 22.0007 48.465 22.0007H36.3203L37.46 18.3716C37.8291 17.239 38.7334 16.6887 40.745 16.6887ZM46.5214 0.0271839H58.6653L57.5257 3.65705C57.1573 4.78914 56.2523 5.33957 54.2414 5.33957H42.0968L43.2364 1.71049C43.6048 0.577673 44.5098 0.0271839 46.5214 0.0271839ZM28.1366 5.31704H31.1645C33.7452 5.31704 33.1531 8.48428 31.8459 11.5745C30.695 14.2909 28.6617 16.6989 26.2372 16.6989H21.1985C19.1873 16.6989 18.2601 17.2493 17.869 18.3822L16.6289 21.9999H20.3271L23.9358 21.9668C27.1422 21.9449 29.7566 21.7138 32.829 18.9974C36.0692 16.1273 39.8456 8.68217 39.197 4.382C38.6948 1.00554 36.8513 0.0155336 32.3821 0.0155336H24.2487L19.5114 13.6527H22.5167L22.5625 13.6527C24.3201 13.6529 25.2174 13.653 26.1591 11.1565L28.1366 5.31704ZM59.5525 21.9953H53.8203L61.5298 0H67.2614L63.9764 9.46928H64.043C64.7283 8.61901 65.4224 7.89878 66.1097 7.18569C66.1958 7.09635 66.2818 7.00711 66.3676 6.91775L72.9705 0H79.9978L69.1266 9.71098L73.6514 21.9953H69.2611C67.8533 21.9953 67.2166 21.149 66.5904 19.2134L64.5683 12.9551L62.0097 15.078L59.5525 21.9953Z" fill="#1AB248"></path> </svg> 