<svg xmlns="http://www.w3.org/2000/svg" viewBox="0 0 1600 1100" fill="none">
  <defs>
    <linearGradient id="bg" x1="800" y1="0" x2="800" y2="1100" gradientUnits="userSpaceOnUse">
      <stop stop-color="#FFFFFF"/>
      <stop offset="1" stop-color="#EEF4F0"/>
    </linearGradient>
    <linearGradient id="road" x1="130" y1="920" x2="1470" y2="330" gradientUnits="userSpaceOnUse">
      <stop stop-color="#34C96B"/>
      <stop offset="1" stop-color="#7BE6AA"/>
    </linearGradient>
    <linearGradient id="water" x1="210" y1="790" x2="420" y2="930" gradientUnits="userSpaceOnUse">
      <stop stop-color="#DDF1FF"/>
      <stop offset="1" stop-color="#B7DBFF"/>
    </linearGradient>
    <linearGradient id="shadow" x1="800" y1="980" x2="800" y2="1080" gradientUnits="userSpaceOnUse">
      <stop stop-color="#DDE6E0" stop-opacity=".65"/>
      <stop offset="1" stop-color="#DDE6E0" stop-opacity="0"/>
    </linearGradient>
    <filter id="soft" x="-20%" y="-20%" width="140%" height="140%">
      <feGaussianBlur stdDeviation="18"/>
    </filter>
  </defs>

  <rect width="1600" height="1100" rx="56" fill="url(#bg)"/>
  <ellipse cx="820" cy="980" rx="620" ry="92" fill="url(#shadow)"/>

  <path d="M180 850C250 815 340 818 402 860C466 903 545 898 604 850L706 767C770 716 860 714 924 764L1031 847C1083 888 1152 897 1211 869L1374 791C1426 767 1460 721 1460 667C1460 613 1424 566 1369 544L1224 487C1158 460 1113 397 1113 325V298" stroke="url(#road)" stroke-width="42" stroke-linecap="round"/>
  <path d="M358 835C385 786 393 731 375 679L349 603C332 554 346 498 386 464L504 365C548 326 613 316 667 340L770 386" stroke="url(#road)" stroke-width="30" stroke-linecap="round"/>

  <g opacity=".38" fill="#FFFFFF">
    <rect x="36" y="248" width="92" height="270" rx="18"/>
    <rect x="86" y="665" width="56" height="162" rx="18"/>
    <rect x="1320" y="170" width="112" height="356" rx="18"/>
    <rect x="1404" y="254" width="74" height="248" rx="18"/>
    <rect x="1193" y="236" width="84" height="214" rx="42"/>
  </g>

  <g transform="translate(640 430)">
    <rect x="0" y="0" width="420" height="218" rx="16" fill="#FFFFFF" stroke="#DDE7E1" stroke-width="6"/>
    <rect x="24" y="146" width="52" height="72" fill="#33C665"/>
    <rect x="115" y="146" width="52" height="72" fill="#33C665"/>
    <rect x="208" y="146" width="52" height="72" fill="#33C665"/>
    <rect x="304" y="146" width="52" height="72" fill="#33C665"/>
    <rect x="22" y="34" width="72" height="14" rx="7" fill="#EDF3EF"/>
    <rect x="114" y="34" width="72" height="14" rx="7" fill="#EDF3EF"/>
    <rect x="206" y="34" width="72" height="14" rx="7" fill="#EDF3EF"/>
    <rect x="298" y="34" width="72" height="14" rx="7" fill="#EDF3EF"/>
    <path d="M206 2C184 2 166 20 166 42C166 65 206 104 206 104C206 104 246 65 246 42C246 20 228 2 206 2Z" fill="#46CF73"/>
    <circle cx="206" cy="41" r="11" fill="#FFFFFF"/>
  </g>

  <g transform="translate(323 402)">
    <rect width="174" height="110" rx="14" fill="#FFFFFF" stroke="#E0E8E3" stroke-width="6"/>
    <path d="M0 48L56 0H150L174 48V110H0V48Z" fill="#65AEFF"/>
    <rect x="76" y="58" width="52" height="52" rx="8" fill="#50CE75"/>
    <rect x="88" y="70" width="28" height="40" rx="4" fill="#FFFFFF"/>
    <rect x="118" y="30" width="38" height="16" rx="4" fill="#FFFFFF" opacity=".9"/>
  </g>

  <g transform="translate(1220 402)">
    <rect width="182" height="104" rx="10" fill="#FFFFFF" stroke="#E0E8E3" stroke-width="6"/>
    <rect x="24" y="-62" width="180" height="82" rx="8" fill="#49A5FF"/>
    <rect x="-18" y="18" width="164" height="86" rx="8" fill="#FFAA34"/>
    <rect x="22" y="-58" width="4" height="72" fill="#2D7FEA" opacity=".55"/>
    <rect x="52" y="-58" width="4" height="72" fill="#2D7FEA" opacity=".55"/>
    <rect x="82" y="-58" width="4" height="72" fill="#2D7FEA" opacity=".55"/>
    <rect x="112" y="-58" width="4" height="72" fill="#2D7FEA" opacity=".55"/>
    <rect x="142" y="-58" width="4" height="72" fill="#2D7FEA" opacity=".55"/>
  </g>

  <g transform="translate(116 772)">
    <path d="M0 74H288L366 130C382 141 389 160 386 179C382 201 364 216 342 216H72C34 216 2 184 0 146V74Z" fill="url(#water)"/>
    <path d="M38 38H226L282 74H0L38 38Z" fill="#FFFFFF"/>
    <rect x="34" y="48" width="88" height="40" rx="6" fill="#318DFF"/>
    <rect x="124" y="48" width="88" height="40" rx="6" fill="#318DFF"/>
    <rect x="214" y="48" width="74" height="40" rx="6" fill="#4CD06E"/>
    <rect x="126" y="6" width="78" height="40" rx="6" fill="#FFB33F"/>
    <rect x="36" y="92" width="128" height="44" rx="6" fill="#318DFF"/>
    <rect x="166" y="92" width="104" height="44" rx="6" fill="#318DFF"/>
    <path d="M26 170H345" stroke="#FFFFFF" stroke-width="8" stroke-linecap="round"/>
  </g>

  <g transform="translate(122 144) rotate(10)">
    <path d="M0 88H140L241 42L298 58L150 111H88L42 133H0L45 104H0V88Z" fill="#FFFFFF" stroke="#E4EBE6" stroke-width="4"/>
    <path d="M98 92L54 28H111L162 90" fill="#FFFFFF"/>
    <rect x="186" y="88" width="30" height="24" rx="10" fill="#41C96F"/>
    <rect x="202" y="89" width="28" height="24" rx="10" fill="#41C96F"/>
    <rect x="176" y="74" width="66" height="16" rx="8" fill="#FFFFFF"/>
    <rect x="118" y="96" width="16" height="8" rx="4" fill="#BFCBC4"/>
    <rect x="98" y="96" width="16" height="8" rx="4" fill="#BFCBC4"/>
    <rect x="78" y="96" width="16" height="8" rx="4" fill="#BFCBC4"/>
  </g>

  <g transform="translate(1010 622)">
    <ellipse cx="0" cy="0" rx="40" ry="22" fill="#E8EFEB"/>
    <path d="M0 -54C-20 -54 -36 -36 -36 -14C-36 16 0 48 0 48C0 48 36 16 36 -14C36 -36 20 -54 0 -54Z" fill="#55CC77"/>
  </g>

  <g transform="translate(1370 748)">
    <rect x="0" y="38" width="84" height="42" rx="8" fill="#49C86D"/>
    <rect x="70" y="30" width="70" height="50" rx="8" fill="#6CD98A"/>
    <rect x="118" y="42" width="24" height="20" rx="4" fill="#FFFFFF"/>
    <circle cx="22" cy="86" r="12" fill="#D9E3DE"/>
    <circle cx="94" cy="86" r="12" fill="#D9E3DE"/>
  </g>

  <g transform="translate(398 646)">
    <rect x="0" y="36" width="74" height="36" rx="7" fill="#FFFFFF" stroke="#DDE6E0" stroke-width="4"/>
    <rect x="56" y="26" width="46" height="46" rx="8" fill="#FFFFFF" stroke="#DDE6E0" stroke-width="4"/>
    <rect x="64" y="44" width="16" height="10" rx="2" fill="#CFE0D6"/>
    <circle cx="24" cy="78" r="10" fill="#C9D7CF"/>
    <circle cx="74" cy="78" r="10" fill="#C9D7CF"/>
    <rect x="60" y="54" width="42" height="18" rx="6" fill="#4CD06F"/>
  </g>

  <g transform="translate(692 690)">
    <rect x="0" y="30" width="74" height="36" rx="7" fill="#FFFFFF" stroke="#DDE6E0" stroke-width="4"/>
    <rect x="56" y="20" width="46" height="46" rx="8" fill="#FFFFFF" stroke="#DDE6E0" stroke-width="4"/>
    <rect x="64" y="38" width="16" height="10" rx="2" fill="#CFE0D6"/>
    <circle cx="24" cy="72" r="10" fill="#C9D7CF"/>
    <circle cx="74" cy="72" r="10" fill="#C9D7CF"/>
    <rect x="60" y="48" width="42" height="18" rx="6" fill="#4CD06F"/>
  </g>

  <g transform="translate(954 838)">
    <rect width="88" height="104" rx="12" fill="#FFFFFF" stroke="#E0E8E3" stroke-width="6"/>
    <rect x="18" y="18" width="52" height="48" rx="8" fill="#EDF3EF"/>
    <path d="M28 74H60" stroke="#4BCF70" stroke-width="7" stroke-linecap="round"/>
    <path d="M26 34H62" stroke="#43B967" stroke-width="8" stroke-linecap="round"/>
    <path d="M30 86L46 98L64 76" stroke="#4BCF70" stroke-width="8" stroke-linecap="round" stroke-linejoin="round"/>
  </g>

  <g transform="translate(824 832)">
    <path d="M0 0H126" stroke="#D7E1DB" stroke-width="10" stroke-linecap="round"/>
    <path d="M8 0V18M34 0V18M60 0V18M86 0V18M112 0V18" stroke="#D7E1DB" stroke-width="6" stroke-linecap="round"/>
    <rect x="14" y="-36" width="32" height="24" rx="5" fill="#FFB33F"/>
    <rect x="54" y="-24" width="32" height="24" rx="5" fill="#FFB33F"/>
    <rect x="94" y="-12" width="32" height="24" rx="5" fill="#FFB33F"/>
  </g>

  <g filter="url(#soft)" opacity=".24">
    <circle cx="1284" cy="213" r="88" fill="#DDE7E1"/>
    <circle cx="286" cy="268" r="64" fill="#DDE7E1"/>
    <circle cx="742" cy="280" r="92" fill="#E6EFEA"/>
  </g>
</svg>
