<svg xmlns="http://www.w3.org/2000/svg" viewBox="0 0 1600 1100" fill="none">
  <defs>
    <linearGradient id="bg" x1="800" y1="0" x2="800" y2="1100" gradientUnits="userSpaceOnUse">
      <stop stop-color="#FFFFFF"/>
      <stop offset="1" stop-color="#EEF2F8"/>
    </linearGradient>
    <linearGradient id="green" x1="276" y1="526" x2="1142" y2="418" gradientUnits="userSpaceOnUse">
      <stop stop-color="#41C96E"/>
      <stop offset="1" stop-color="#7CE4A2"/>
    </linearGradient>
    <linearGradient id="blue" x1="891" y1="726" x2="1462" y2="520" gradientUnits="userSpaceOnUse">
      <stop stop-color="#5A97F2"/>
      <stop offset="1" stop-color="#81B4FF"/>
    </linearGradient>
    <linearGradient id="orange" x1="712" y1="315" x2="1264" y2="729" gradientUnits="userSpaceOnUse">
      <stop stop-color="#FFB457"/>
      <stop offset="1" stop-color="#F09A31"/>
    </linearGradient>
    <filter id="blur" x="-20%" y="-20%" width="140%" height="140%">
      <feGaussianBlur stdDeviation="26"/>
    </filter>
  </defs>

  <rect width="1600" height="1100" rx="56" fill="url(#bg)"/>
  <g opacity=".22" filter="url(#blur)">
    <circle cx="252" cy="222" r="116" fill="#DDE5EF"/>
    <circle cx="1342" cy="224" r="128" fill="#DEE5F2"/>
    <circle cx="804" cy="878" r="176" fill="#E3EAF3"/>
  </g>

  <path d="M484 530C557 437 654 392 746 398C838 405 913 453 971 510C1047 586 1142 596 1239 548L1303 516" stroke="url(#green)" stroke-width="20" stroke-linecap="round"/>
  <path d="M1003 667C953 715 930 783 931 850" stroke="url(#blue)" stroke-width="18" stroke-linecap="round"/>
  <path d="M1031 661C1117 695 1179 751 1241 831" stroke="url(#orange)" stroke-width="18" stroke-linecap="round"/>
  <path d="M985 670C907 699 842 756 778 838" stroke="url(#blue)" stroke-width="18" stroke-linecap="round"/>
  <path d="M909 555C850 462 771 395 680 333" stroke="url(#orange)" stroke-width="16" stroke-linecap="round"/>

  <g transform="translate(854 463)">
    <ellipse cx="146" cy="116" rx="146" ry="116" fill="#FFFFFF" stroke="#E1E7EF" stroke-width="6"/>
    <rect x="86" y="60" width="128" height="90" rx="14" fill="#F5F8FC" stroke="#E1E7EF" stroke-width="5"/>
    <rect x="110" y="82" width="81" height="48" rx="8" fill="#FFFFFF"/>
    <path d="M118 97H149V109H118V97Z" fill="#69D08A"/>
    <path d="M155 97H184V109H155V97Z" fill="#6A9CF2"/>
    <path d="M118 115H149V127H118V115Z" fill="#6A9CF2"/>
    <path d="M155 115H184V127H155V115Z" fill="#69D08A"/>
    <rect x="151" y="140" width="42" height="10" rx="5" fill="#CAD4E1"/>
    <rect x="127" y="157" width="90" height="12" rx="6" fill="#BFCBDC"/>
    <circle cx="84" cy="112" r="46" fill="#6AA1F1"/>
    <circle cx="84" cy="94" r="16" fill="#FFFFFF"/>
    <path d="M53 143C56 119 73 106 84 106C95 106 112 119 115 143" fill="#FFFFFF"/>
    <rect x="58" y="183" width="34" height="24" rx="6" fill="#63C884"/>
    <path d="M72 193C72 187 76 183 82 183C88 183 92 187 92 193" stroke="#FFFFFF" stroke-width="4" stroke-linecap="round"/>
  </g>

  <g transform="translate(76 312)">
    <rect x="32" y="0" width="420" height="224" rx="42" fill="#FFFFFF" stroke="#E1E7EF" stroke-width="6"/>
    <rect x="125" y="163" width="30" height="61" fill="#45C86F"/>
    <rect x="305" y="163" width="30" height="61" fill="#45C86F"/>
    <rect x="0" y="183" width="84" height="124" rx="16" fill="#FFFFFF" stroke="#E1E7EF" stroke-width="6"/>
    <rect x="22" y="217" width="68" height="48" rx="8" fill="#63D287"/>
    <circle cx="20" cy="313" r="11" fill="#CFD7E0"/>
    <circle cx="80" cy="313" r="11" fill="#CFD7E0"/>

    <g transform="translate(126 208)">
      <rect width="325" height="28" rx="14" fill="#ECEFF4"/>
      <rect x="19" y="-39" width="58" height="43" rx="8" fill="#C7E1C9"/>
      <rect x="71" y="-50" width="58" height="54" rx="8" fill="#D6B177"/>
      <rect x="136" y="-31" width="58" height="35" rx="8" fill="#C7E1C9"/>
      <rect x="199" y="-17" width="54" height="21" rx="6" fill="#E8EBEF"/>
      <rect x="257" y="-38" width="62" height="42" rx="8" fill="#79AFFF"/>
      <circle cx="296" cy="107" r="42" fill="#FFFFFF" stroke="#E1E7EF" stroke-width="5"/>
      <path d="M279 84L325 84" stroke="#AEB9C7" stroke-width="7" stroke-linecap="round"/>
      <path d="M302 61L302 107" stroke="#AEB9C7" stroke-width="7" stroke-linecap="round"/>
      <rect x="19" y="45" width="58" height="43" rx="8" fill="#D6B177"/>
      <rect x="90" y="39" width="58" height="49" rx="8" fill="#C7E1C9"/>
      <rect x="164" y="53" width="54" height="35" rx="8" fill="#E8EBEF"/>
      <rect x="232" y="37" width="60" height="51" rx="8" fill="#79AFFF"/>
      <rect x="6" y="104" width="314" height="16" rx="8" fill="#ECEFF4"/>
    </g>

    <g transform="translate(476 104)">
      <rect x="0" y="38" width="74" height="36" rx="7" fill="#FFFFFF" stroke="#DDE6E0" stroke-width="4"/>
      <rect x="56" y="28" width="46" height="46" rx="8" fill="#FFFFFF" stroke="#DDE6E0" stroke-width="4"/>
      <rect x="64" y="46" width="16" height="10" rx="2" fill="#CFE0D6"/>
      <circle cx="24" cy="80" r="10" fill="#C9D7CF"/>
      <circle cx="74" cy="80" r="10" fill="#C9D7CF"/>
      <rect x="58" y="0" width="54" height="36" rx="8" fill="#F5B252"/>
    </g>
  </g>

  <g transform="translate(1222 148)">
    <rect width="260" height="166" rx="28" fill="#FFFFFF" stroke="#E1E7EF" stroke-width="6"/>
    <rect x="88" y="-50" width="116" height="136" rx="18" fill="#6DCB8B"/>
    <path d="M129 2H163C172 2 180 10 180 19V35H112V19C112 10 120 2 129 2Z" stroke="#FFFFFF" stroke-width="6"/>
    <rect x="114" y="95" width="68" height="44" rx="8" fill="#D3AE75"/>
    <rect x="82" y="124" width="42" height="28" rx="6" fill="#D3AE75"/>
    <circle cx="210" cy="127" r="34" fill="#6CCB8C"/>
    <circle cx="210" cy="116" r="11" fill="#FFFFFF"/>
    <path d="M188 146C190 131 202 122 210 122C218 122 230 131 232 146" fill="#FFFFFF"/>
    <path d="M110 59H180" stroke="#FFFFFF" stroke-width="10"/>
    <path d="M120 59V88M145 59V88M170 59V88" stroke="#FFFFFF" stroke-width="8"/>
  </g>

  <g transform="translate(1382 470)">
    <rect width="180" height="150" rx="24" fill="#FFFFFF" stroke="#E1E7EF" stroke-width="6"/>
    <rect x="74" y="-34" width="96" height="108" rx="18" fill="#76A7F8"/>
    <path d="M104 2H140C149 2 157 10 157 19V35H87V19C87 10 95 2 104 2Z" stroke="#FFFFFF" stroke-width="6"/>
    <path d="M102 18H142" stroke="#FFFFFF" stroke-width="7" stroke-linecap="round"/>
    <path d="M109 31H135" stroke="#FFFFFF" stroke-width="7" stroke-linecap="round"/>
    <rect x="62" y="86" width="42" height="28" rx="6" fill="#D3AE75"/>
    <rect x="100" y="76" width="48" height="38" rx="6" fill="#D3AE75"/>
    <circle cx="126" cy="124" r="28" fill="#76A7F8"/>
    <circle cx="126" cy="115" r="10" fill="#FFFFFF"/>
    <path d="M108 140C110 128 118 122 126 122C134 122 142 128 144 140" fill="#FFFFFF"/>
  </g>

  <g transform="translate(1204 768)">
    <rect width="238" height="180" rx="28" fill="#FFFFFF" stroke="#E1E7EF" stroke-width="6"/>
    <rect x="100" y="-46" width="98" height="130" rx="18" fill="#F4A44D"/>
    <path d="M135 10H169C178 10 186 18 186 27V43H118V27C118 18 126 10 135 10Z" stroke="#FFFFFF" stroke-width="6"/>
    <path d="M118 68H186" stroke="#FFFFFF" stroke-width="10"/>
    <path d="M128 68V100M152 68V100M176 68V100" stroke="#FFFFFF" stroke-width="8"/>
    <rect x="54" y="120" width="44" height="30" rx="6" fill="#D3AE75"/>
    <rect x="100" y="108" width="48" height="42" rx="6" fill="#D3AE75"/>
    <circle cx="170" cy="144" r="33" fill="#F2A349"/>
    <circle cx="170" cy="133" r="11" fill="#FFFFFF"/>
    <path d="M149 166C151 151 161 143 170 143C179 143 189 151 191 166" fill="#FFFFFF"/>
  </g>

  <g transform="translate(982 822)">
    <rect width="58" height="58" rx="8" fill="#D3AE75"/>
    <rect x="48" y="24" width="58" height="58" rx="8" fill="#79AFFF"/>
    <rect x="97" y="0" width="58" height="58" rx="8" fill="#D9DEE5"/>
    <rect x="148" y="28" width="58" height="58" rx="8" fill="#86D19A"/>
  </g>

  <g transform="translate(905 242)">
    <rect width="58" height="58" rx="8" fill="#D3AE75"/>
    <rect x="44" y="26" width="58" height="58" rx="8" fill="#86D19A"/>
    <rect x="90" y="0" width="58" height="58" rx="8" fill="#79AFFF"/>
    <rect x="12" y="74" width="50" height="50" rx="8" fill="#E6EAEE"/>
  </g>

  <g transform="translate(638 869)">
    <rect x="0" y="36" width="74" height="36" rx="7" fill="#FFFFFF" stroke="#DDE6E0" stroke-width="4"/>
    <rect x="56" y="26" width="46" height="46" rx="8" fill="#FFFFFF" stroke="#DDE6E0" stroke-width="4"/>
    <rect x="64" y="44" width="16" height="10" rx="2" fill="#CFE0D6"/>
    <circle cx="24" cy="78" r="10" fill="#C9D7CF"/>
    <circle cx="74" cy="78" r="10" fill="#C9D7CF"/>
    <rect x="58" y="0" width="54" height="36" rx="8" fill="#77A8F8"/>
  </g>

  <g transform="translate(230 204)">
    <rect x="0" y="0" width="20" height="100" rx="10" fill="#7BD09A"/>
    <circle cx="10" cy="-14" r="22" fill="#7BD09A"/>
  </g>
  <g transform="translate(514 252)">
    <rect x="0" y="0" width="16" height="82" rx="8" fill="#7BD09A"/>
    <circle cx="8" cy="-12" r="18" fill="#7BD09A"/>
  </g>
  <g transform="translate(558 266)">
    <rect x="0" y="0" width="14" height="72" rx="7" fill="#7BD09A"/>
    <circle cx="7" cy="-10" r="16" fill="#7BD09A"/>
  </g>
</svg>
