<svg xmlns="http://www.w3.org/2000/svg" viewBox="0 0 64 64">
  <rect width="64" height="64" rx="18" fill="#F5F4EE"/>
  <rect x="6" y="6" width="52" height="52" rx="16" fill="#111715"/>
  <rect x="10" y="10" width="28" height="44" rx="14" fill="#1AB248"/>
  <path d="M24.2 23.2c-1.5-1.1-3.2-1.7-5.1-1.7-5.1 0-8.8 3.8-8.8 10.5 0 6.6 3.6 10.5 8.8 10.5 2 0 3.8-.5 5.2-1.6v-4.5c-1.3 1.3-2.8 2-4.6 2-3 0-5-2.3-5-6.4 0-4.2 2.1-6.4 5.1-6.4 1.7 0 3.2.7 4.4 1.9v-4.3Z" fill="#fff"/>
  <path d="M43.8 20.5c4.9 0 8.4 2.6 9.9 7.2h-4.8c-1-1.8-2.7-2.8-5-2.8-3.6 0-6 2.6-6 7.1 0 4.6 2.4 7.1 6 7.1 2.3 0 4-.9 5-2.8h4.8c-1.5 4.7-5 7.2-9.9 7.2-6.2 0-10.6-4.4-10.6-11.5 0-7.2 4.4-11.5 10.6-11.5Z" fill="#F5F4EE"/>
</svg>
